<svg width="14" height="15" viewBox="0 0 14 15" fill="none" xmlns="http://www.w3.org/2000/svg">
<path d="M13.7812 7.75C13.7812 11.4961 10.7188 14.5312 7 14.5312C5.38672 14.5586 3.88281 13.9844 2.73438 13.0547C2.43359 12.8086 2.40625 12.3438 2.67969 12.0703L2.98047 11.7695C3.22656 11.5234 3.60938 11.4961 3.85547 11.7148C4.73047 12.3984 5.79688 12.7812 7 12.7812C9.76172 12.7812 12.0312 10.5391 12.0312 7.75C12.0312 4.98828 9.76172 2.71875 7 2.71875C5.66016 2.71875 4.42969 3.23828 3.52734 4.08594L4.92188 5.48047C5.19531 5.75391 5.00391 6.21875 4.62109 6.21875H0.65625C0.410156 6.21875 0.21875 6.02734 0.21875 5.78125V1.81641C0.21875 1.43359 0.683594 1.24219 0.957031 1.51562L2.29688 2.85547C3.52734 1.70703 5.16797 0.96875 7 0.96875C10.7188 0.96875 13.7539 4.00391 13.7812 7.75ZM8.83203 9.91016C8.58594 10.1836 8.17578 10.2383 7.90234 10.0195L6.125 8.625V4.90625C6.125 4.55078 6.39844 4.25 6.78125 4.25H7.21875C7.57422 4.25 7.875 4.55078 7.875 4.90625V7.77734L8.96875 8.65234C9.26953 8.87109 9.32422 9.28125 9.07812 9.55469L8.83203 9.91016Z" fill="#5E2DFA"/>
</svg>
