<svg width="14" height="15" viewBox="0 0 14 15" fill="none" xmlns="http://www.w3.org/2000/svg">
<path d="M9.1875 5.125H4.34766C4.75781 2.69141 5.6875 0.96875 6.78125 0.96875C7.84766 0.96875 8.80469 2.69141 9.1875 5.125ZM4.15625 7.75C4.15625 7.14844 4.18359 6.57422 4.23828 6H9.29688C9.35156 6.57422 9.37891 7.14844 9.37891 7.75C9.37891 8.37891 9.35156 8.95312 9.29688 9.5H4.23828C4.18359 8.95312 4.15625 8.37891 4.15625 7.75ZM13.0156 5.125H10.0625C9.81641 3.59375 9.37891 2.19922 8.69531 1.26953C10.6641 1.84375 12.25 3.29297 13.0156 5.125ZM4.83984 1.26953C4.15625 2.19922 3.71875 3.59375 3.47266 5.125H0.519531C1.28516 3.29297 2.87109 1.84375 4.83984 1.26953ZM13.3164 6C13.4531 6.57422 13.5352 7.14844 13.5352 7.75C13.5352 8.37891 13.4531 8.95312 13.3164 9.5H10.1719C10.2266 8.92578 10.2812 8.35156 10.2812 7.75C10.2812 7.17578 10.2266 6.57422 10.1719 6H13.3164ZM3.28125 7.75C3.28125 8.35156 3.30859 8.92578 3.36328 9.5H0.21875C0.0820312 8.95312 0 8.37891 0 7.75C0 7.14844 0.0820312 6.57422 0.21875 6H3.36328C3.30859 6.57422 3.28125 7.17578 3.28125 7.75ZM4.34766 10.375H9.1875C8.80469 12.8359 7.84766 14.5312 6.78125 14.5312C5.6875 14.5312 4.75781 12.8359 4.34766 10.375ZM8.69531 14.2578C9.37891 13.3281 9.84375 11.9336 10.0625 10.375H13.0156C12.25 12.2344 10.6641 13.6836 8.69531 14.2578ZM0.519531 10.375H3.47266C3.71875 11.9336 4.15625 13.3281 4.83984 14.2578C2.87109 13.6836 1.28516 12.2344 0.519531 10.375Z" fill="#5E2DFA"/>
</svg>
