<svg width="33" height="24" viewBox="0 0 33 24" fill="none" xmlns="http://www.w3.org/2000/svg">
<path d="M4.875 10.625C3.04688 10.625 1.625 9.20312 1.625 7.375C1.625 5.59766 3.04688 4.125 4.875 4.125C6.65234 4.125 8.125 5.59766 8.125 7.375C8.125 9.20312 6.65234 10.625 4.875 10.625ZM27.625 10.625C25.7969 10.625 24.375 9.20312 24.375 7.375C24.375 5.59766 25.7969 4.125 27.625 4.125C29.4023 4.125 30.875 5.59766 30.875 7.375C30.875 9.20312 29.4023 10.625 27.625 10.625ZM29.25 12.25C31.0273 12.25 32.5 13.7227 32.5 15.5V17.125C32.5 18.0391 31.7383 18.75 30.875 18.75H27.5234C27.168 16.3633 25.7461 14.332 23.6641 13.2148C24.2734 12.6562 25.0859 12.25 26 12.25H29.25ZM16.25 12.25C13.1016 12.25 10.5625 9.71094 10.5625 6.5625C10.5625 3.46484 13.1016 0.875 16.25 0.875C19.3477 0.875 21.9375 3.46484 21.9375 6.5625C21.9375 9.71094 19.3477 12.25 16.25 12.25ZM20.1094 13.875C23.3594 13.875 26 16.5156 26 19.7656V21.1875C26 22.5586 24.8828 23.625 23.5625 23.625H8.9375C7.56641 23.625 6.5 22.5586 6.5 21.1875V19.7656C6.5 16.5156 9.08984 13.875 12.3398 13.875H12.7461C13.8125 14.3828 14.9805 14.6875 16.25 14.6875C17.4688 14.6875 18.6367 14.3828 19.7031 13.875H20.1094ZM8.78516 13.2148C6.70312 14.332 5.28125 16.3633 4.92578 18.75H1.625C0.710938 18.75 0 18.0391 0 17.125V15.5C0 13.7227 1.42188 12.25 3.25 12.25H6.5C7.36328 12.25 8.17578 12.6562 8.78516 13.2148Z" fill="#5E2DFA"/>
</svg>
