<svg width="36" height="35" viewBox="0 0 36 35" fill="none" xmlns="http://www.w3.org/2000/svg">
<path d="M18.2305 0.0625C27.8633 0.0625 35.668 7.86719 35.668 17.5C35.668 27.1328 27.8633 34.9375 18.2305 34.9375C8.59766 34.9375 0.792969 27.1328 0.792969 17.5C0.792969 7.86719 8.59766 0.0625 18.2305 0.0625ZM24.6992 22.0703C24.8398 21.9297 24.9805 21.6484 24.9805 21.3672C24.9805 21.0156 24.7695 20.7344 24.5586 20.5234L20.4805 17.5V7.375C20.4805 6.8125 19.918 6.25 19.3555 6.25H17.1055C16.4727 6.25 15.9805 6.8125 15.9805 7.375V18.3438C15.9805 19.2578 16.332 20.0312 17.0352 20.5234L21.7461 24.0391C21.8867 24.1797 22.168 24.3203 22.3789 24.3203C22.8008 24.3203 23.082 24.1094 23.293 23.8281L24.6992 22.0703Z" fill="#999999"/>
</svg>
