<svg width="24" height="27" viewBox="0 0 24 27" fill="none" xmlns="http://www.w3.org/2000/svg">
<path d="M23.0156 24.625C23.3203 24.625 23.625 24.9297 23.625 25.2344V26.25H0.875V25.2344C0.875 24.9297 1.12891 24.625 1.48438 24.625H2.5V1.46875C2.5 0.808594 3.00781 0.25 3.71875 0.25H20.7812C21.4414 0.25 22 0.808594 22 1.46875V24.625H23.0156ZM7.375 4.10938V6.14062C7.375 6.49609 7.62891 6.75 7.98438 6.75H10.0156C10.3203 6.75 10.625 6.49609 10.625 6.14062V4.10938C10.625 3.80469 10.3203 3.5 10.0156 3.5H7.98438C7.62891 3.5 7.375 3.80469 7.375 4.10938ZM7.375 8.98438V11.0156C7.375 11.3711 7.62891 11.625 7.98438 11.625H10.0156C10.3203 11.625 10.625 11.3711 10.625 11.0156V8.98438C10.625 8.67969 10.3203 8.375 10.0156 8.375H7.98438C7.62891 8.375 7.375 8.67969 7.375 8.98438ZM10.0156 16.5C10.3203 16.5 10.625 16.2461 10.625 15.8906V13.8594C10.625 13.5547 10.3203 13.25 10.0156 13.25H7.98438C7.62891 13.25 7.375 13.5547 7.375 13.8594V15.8906C7.375 16.2461 7.62891 16.5 7.98438 16.5H10.0156ZM13.875 24.625V20.3594C13.875 20.0547 13.5703 19.75 13.2656 19.75H11.2344C10.8789 19.75 10.625 20.0547 10.625 20.3594V24.625H13.875ZM17.125 15.8906V13.8594C17.125 13.5547 16.8203 13.25 16.5156 13.25H14.4844C14.1289 13.25 13.875 13.5547 13.875 13.8594V15.8906C13.875 16.2461 14.1289 16.5 14.4844 16.5H16.5156C16.8203 16.5 17.125 16.2461 17.125 15.8906ZM17.125 11.0156V8.98438C17.125 8.67969 16.8203 8.375 16.5156 8.375H14.4844C14.1289 8.375 13.875 8.67969 13.875 8.98438V11.0156C13.875 11.3711 14.1289 11.625 14.4844 11.625H16.5156C16.8203 11.625 17.125 11.3711 17.125 11.0156ZM17.125 6.14062V4.10938C17.125 3.80469 16.8203 3.5 16.5156 3.5H14.4844C14.1289 3.5 13.875 3.80469 13.875 4.10938V6.14062C13.875 6.49609 14.1289 6.75 14.4844 6.75H16.5156C16.8203 6.75 17.125 6.49609 17.125 6.14062Z" fill="#5E2DFA"/>
</svg>
