<svg width="11" height="13" viewBox="0 0 11 13" fill="none" xmlns="http://www.w3.org/2000/svg">
<path d="M10.3945 0.949219C10.582 0.949219 10.7695 1.13672 10.7695 1.32422V2.07422C10.7695 2.28516 10.582 2.44922 10.3945 2.44922H0.644531C0.433594 2.44922 0.269531 2.28516 0.269531 2.07422V1.32422C0.269531 1.13672 0.433594 0.949219 0.644531 0.949219H3.45703L3.66797 0.527344C3.76172 0.339844 3.94922 0.199219 4.16016 0.199219H6.85547C7.06641 0.199219 7.25391 0.339844 7.34766 0.527344L7.58203 0.949219H10.3945ZM1.51172 11.1445L1.01953 3.19922H10.0195L9.50391 11.1445C9.48047 11.7539 8.98828 12.1992 8.37891 12.1992H2.63672C2.02734 12.1992 1.53516 11.7539 1.51172 11.1445Z" fill="white"/>
</svg>
