<svg width="13" height="13" viewBox="0 0 13 13" fill="none" xmlns="http://www.w3.org/2000/svg">
<path d="M5.80273 0.5H7.67773C7.98242 0.5 8.24023 0.757812 8.24023 1.0625V5H10.2793C10.7012 5 10.9121 5.51562 10.6074 5.82031L7.04492 9.38281C6.88086 9.54688 6.57617 9.54688 6.41211 9.38281L2.84961 5.82031C2.54492 5.51562 2.75586 5 3.17773 5H5.24023V1.0625C5.24023 0.757812 5.47461 0.5 5.80273 0.5ZM12.7402 9.3125V11.9375C12.7402 12.2656 12.4824 12.5 12.1777 12.5H1.30273C0.974609 12.5 0.740234 12.2656 0.740234 11.9375V9.3125C0.740234 9.00781 0.974609 8.75 1.30273 8.75H4.72461L5.87305 9.89844C6.3418 10.3906 7.11523 10.3906 7.58398 9.89844L8.73242 8.75H12.1777C12.4824 8.75 12.7402 9.00781 12.7402 9.3125ZM9.83398 11.375C9.83398 11.1172 9.62305 10.9062 9.36523 10.9062C9.10742 10.9062 8.89648 11.1172 8.89648 11.375C8.89648 11.6328 9.10742 11.8438 9.36523 11.8438C9.62305 11.8438 9.83398 11.6328 9.83398 11.375ZM11.334 11.375C11.334 11.1172 11.123 10.9062 10.8652 10.9062C10.6074 10.9062 10.3965 11.1172 10.3965 11.375C10.3965 11.6328 10.6074 11.8438 10.8652 11.8438C11.123 11.8438 11.334 11.6328 11.334 11.375Z" fill="white"/>
</svg>
