<svg width="15" height="13" viewBox="0 0 15 13" fill="none" xmlns="http://www.w3.org/2000/svg">
<path d="M10.041 2.16797L12.1504 4.27734C12.2441 4.37109 12.2441 4.51172 12.1504 4.60547L7.04102 9.71484L4.86133 9.94922C4.58008 9.99609 4.32227 9.73828 4.36914 9.45703L4.60352 7.27734L9.71289 2.16797C9.80664 2.07422 9.94727 2.07422 10.041 2.16797ZM13.8379 1.62891C14.1895 1.98047 14.1895 2.56641 13.8379 2.91797L13.0176 3.73828C12.9238 3.83203 12.7832 3.83203 12.6895 3.73828L10.5801 1.62891C10.4863 1.53516 10.4863 1.39453 10.5801 1.30078L11.4004 0.480469C11.752 0.128906 12.3379 0.128906 12.6895 0.480469L13.8379 1.62891ZM9.61914 8.33203C9.61914 8.23828 9.64258 8.16797 9.68945 8.12109L10.627 7.18359C10.8145 7.01953 11.1191 7.13672 11.1191 7.39453V11.0742C11.1191 11.707 10.6035 12.1992 9.99414 12.1992H1.74414C1.11133 12.1992 0.619141 11.707 0.619141 11.0742V2.82422C0.619141 2.21484 1.11133 1.69922 1.74414 1.69922H8.42383C8.68164 1.69922 8.79883 2.00391 8.63477 2.19141L7.69727 3.12891C7.65039 3.17578 7.58008 3.19922 7.48633 3.19922H2.11914V10.6992H9.61914V8.33203Z" fill="white"/>
</svg>
