<svg width="37" height="27" viewBox="0 0 37 27" fill="none" xmlns="http://www.w3.org/2000/svg">
<path d="M36.0273 8.92969C36.3086 8.71875 36.7305 8.92969 36.7305 9.28125V23.625C36.7305 25.5234 35.1836 27 33.3555 27H4.10547C2.20703 27 0.730469 25.5234 0.730469 23.625V9.28125C0.730469 8.92969 1.08203 8.71875 1.36328 8.92969C2.98047 10.1953 5.01953 11.7422 12.1914 16.9453C13.668 18 16.1992 20.3203 18.7305 20.3203C21.1914 20.3203 23.793 18 25.1992 16.9453C32.3711 11.7422 34.4102 10.1953 36.0273 8.92969ZM18.7305 18C17.043 18.0703 14.7227 15.9609 13.5273 15.1172C4.17578 8.36719 3.47266 7.73438 1.36328 6.04688C0.941406 5.76562 0.730469 5.27344 0.730469 4.71094V3.375C0.730469 1.54688 2.20703 0 4.10547 0H33.3555C35.1836 0 36.7305 1.54688 36.7305 3.375V4.71094C36.7305 5.27344 36.4492 5.76562 36.0273 6.04688C33.918 7.73438 33.2148 8.36719 23.8633 15.1172C22.668 15.9609 20.3477 18.0703 18.7305 18Z" fill="#999999"/>
</svg>
