<svg width="17" height="13" viewBox="0 0 17 13" fill="none" xmlns="http://www.w3.org/2000/svg">
<path d="M8.48633 3.82422C8.54102 3.76953 8.62305 3.74219 8.70508 3.74219C8.75977 3.74219 8.8418 3.76953 8.89648 3.82422L13.9551 7.95312V12.4375C13.9551 12.6836 13.7363 12.875 13.5176 12.875H10.4277C10.209 12.875 9.99023 12.6836 9.99023 12.4375V9.8125C9.99023 9.59375 9.79883 9.375 9.55273 9.375H7.80273C7.58398 9.375 7.36523 9.59375 7.36523 9.8125V12.4375C7.36523 12.6836 7.17383 12.875 6.95508 12.875H3.89258C3.64648 12.875 3.45508 12.6836 3.45508 12.4375V7.98047L8.48633 3.82422ZM16.4434 6.64062C16.5254 6.69531 16.5801 6.80469 16.5801 6.88672C16.5801 6.96875 16.5527 7.05078 16.498 7.10547L15.7871 7.95312C15.7324 8.03516 15.6504 8.0625 15.541 8.0625C15.459 8.0625 15.377 8.03516 15.3223 7.98047L8.89648 2.70312C8.8418 2.64844 8.75977 2.62109 8.70508 2.62109C8.62305 2.62109 8.54102 2.64844 8.48633 2.70312L2.06055 7.98047C2.00586 8.03516 1.92383 8.0625 1.8418 8.0625C1.73242 8.0625 1.65039 8.03516 1.5957 7.95312L0.884766 7.10547C0.857422 7.05078 0.802734 6.96875 0.802734 6.88672C0.802734 6.80469 0.857422 6.69531 0.939453 6.64062L7.85742 0.925781C8.07617 0.761719 8.37695 0.652344 8.70508 0.652344C9.00586 0.652344 9.30664 0.761719 9.52539 0.925781L11.9863 2.94922V0.980469C11.9863 0.789062 12.123 0.652344 12.3145 0.652344H13.8457C14.0098 0.652344 14.1738 0.789062 14.1738 0.980469V4.75391L16.4434 6.64062Z" fill="#66789C"/>
</svg>
