<svg width="47" height="47" viewBox="0 0 47 47" fill="none" xmlns="http://www.w3.org/2000/svg">
<path d="M23.5 1C11.0733 1 1 11.0733 1 23.5C1 35.9267 11.0733 46 23.5 46C35.9267 46 46 35.9267 46 23.5C46 11.0733 35.9267 1 23.5 1Z" stroke="#8783E7" strokeWidth="1.5" strokeLinecap="round" strokeLinejoin="round"/>
<path d="M14.498 44.128V28L23.498 12.25L32.498 28V44.128" stroke="#8783E7" strokeWidth="1.5" strokeLinecap="round" strokeLinejoin="round"/>
<path d="M14.498 28C14.498 28 17.0338 30.25 18.998 30.25C20.9623 30.25 23.498 28 23.498 28C23.498 28 26.0338 30.25 27.998 30.25C29.9623 30.25 32.498 28 32.498 28" stroke="#8783E7" strokeWidth="1.5" strokeLinecap="round" strokeLinejoin="round"/>
</svg>
