<svg width="45" height="45" viewBox="0 0 45 45" fill="none" xmlns="http://www.w3.org/2000/svg">
<path d="M30.375 21.9375C30.375 21.4899 30.1972 21.0607 29.8807 20.7443C29.5643 20.4278 29.1351 20.25 28.6875 20.25C28.2399 20.25 27.8107 20.4278 27.4943 20.7443C27.1778 21.0607 27 21.4899 27 21.9375V26.4375C27 26.8851 27.1778 27.3143 27.4943 27.6307C27.8107 27.9472 28.2399 28.125 28.6875 28.125C29.1351 28.125 29.5643 27.9472 29.8807 27.6307C30.1972 27.3143 30.375 26.8851 30.375 26.4375V21.9375Z" fill="#C293FE"/>
<path d="M21.9365 20.25C22.3841 20.25 22.8133 20.4278 23.1298 20.7443C23.4462 21.0607 23.624 21.4899 23.624 21.9375V26.4375C23.624 26.8851 23.4462 27.3143 23.1298 27.6307C22.8133 27.9472 22.3841 28.125 21.9365 28.125C21.489 28.125 21.0597 27.9472 20.7433 27.6307C20.4268 27.3143 20.249 26.8851 20.249 26.4375V21.9375C20.249 21.4899 20.4268 21.0607 20.7433 20.7443C21.0597 20.4278 21.489 20.25 21.9365 20.25Z" fill="#C293FE"/>
<path d="M16.876 21.9375C16.876 21.4899 16.6982 21.0607 16.3817 20.7443C16.0653 20.4278 15.636 20.25 15.1885 20.25C14.7409 20.25 14.3117 20.4278 13.9952 20.7443C13.6788 21.0607 13.501 21.4899 13.501 21.9375V26.4375C13.501 26.8851 13.6788 27.3143 13.9952 27.6307C14.3117 27.9472 14.7409 28.125 15.1885 28.125C15.636 28.125 16.0653 27.9472 16.3817 27.6307C16.6982 27.3143 16.876 26.8851 16.876 26.4375V21.9375Z" fill="#C293FE"/>
<path d="M8.4375 30.375C8.88505 30.375 9.31428 30.5528 9.63074 30.8693C9.94721 31.1857 10.125 31.6149 10.125 32.0625V37.6875C10.125 38.1351 9.94721 38.5643 9.63074 38.8807C9.31428 39.1972 8.88505 39.375 8.4375 39.375C7.98995 39.375 7.56072 39.1972 7.24426 38.8807C6.92779 38.5643 6.75 38.1351 6.75 37.6875V32.0625C6.75 31.6149 6.92779 31.1857 7.24426 30.8693C7.56072 30.5528 7.98995 30.375 8.4375 30.375Z" fill="#C293FE"/>
<path d="M38.25 32.0625C38.25 31.6149 38.0722 31.1857 37.7557 30.8693C37.4393 30.5528 37.0101 30.375 36.5625 30.375C36.1149 30.375 35.6857 30.5528 35.3693 30.8693C35.0528 31.1857 34.875 31.6149 34.875 32.0625V37.6875C34.875 38.1351 35.0528 38.5643 35.3693 38.8807C35.6857 39.1972 36.1149 39.375 36.5625 39.375C37.0101 39.375 37.4393 39.1972 37.7557 38.8807C38.0722 38.5643 38.25 38.1351 38.25 37.6875V32.0625Z" fill="#C293FE"/>
<path d="M21.9375 0H30.375C30.6734 0 30.9595 0.118527 31.1705 0.329505C31.3815 0.540484 31.5 0.826631 31.5 1.125V5.625C31.5 5.92337 31.3815 6.20952 31.1705 6.4205C30.9595 6.63147 30.6734 6.75 30.375 6.75H23.625V9.0405C27.5972 9.32495 31.3142 11.1036 34.0277 14.0184C36.7413 16.9331 38.2499 20.7676 38.25 24.75H39.9375C41.2802 24.75 42.5678 25.2834 43.5172 26.2328C44.4666 27.1822 45 28.4698 45 29.8125V43.3125C45 43.7601 44.8222 44.1893 44.5057 44.5057C44.1893 44.8222 43.7601 45 43.3125 45H1.6875C1.23995 45 0.810725 44.8222 0.494257 44.5057C0.177789 44.1893 0 43.7601 0 43.3125V29.8125C0 28.4698 0.533369 27.1822 1.48277 26.2328C2.43217 25.2834 3.71984 24.75 5.0625 24.75H6.75C6.74996 20.9622 8.11458 17.3012 10.5939 14.4376C13.0732 11.574 16.5012 9.69954 20.25 9.1575V1.6875C20.25 1.23995 20.4278 0.810725 20.7443 0.494257C21.0607 0.177789 21.4899 0 21.9375 0ZM22.5 12.375C19.2179 12.375 16.0703 13.6788 13.7496 15.9996C11.4288 18.3203 10.125 21.4679 10.125 24.75V26.4375C10.125 26.8851 9.94721 27.3143 9.63074 27.6307C9.31428 27.9472 8.88505 28.125 8.4375 28.125H5.0625C4.61495 28.125 4.18572 28.3028 3.86926 28.6193C3.55279 28.9357 3.375 29.3649 3.375 29.8125V41.625H16.875V35.4375C16.875 34.9899 17.0528 34.5607 17.3693 34.2443C17.6857 33.9278 18.1149 33.75 18.5625 33.75H26.4375C26.8851 33.75 27.3143 33.9278 27.6307 34.2443C27.9472 34.5607 28.125 34.9899 28.125 35.4375V41.625H41.625V29.8125C41.625 29.3649 41.4472 28.9357 41.1307 28.6193C40.8143 28.3028 40.3851 28.125 39.9375 28.125H36.5625C36.1149 28.125 35.6857 27.9472 35.3693 27.6307C35.0528 27.3143 34.875 26.8851 34.875 26.4375V24.75C34.875 21.4679 33.5712 18.3203 31.2504 15.9996C28.9297 13.6788 25.7821 12.375 22.5 12.375ZM24.75 37.125H20.25V41.625H24.75V37.125Z" fill="#C293FE"/>
</svg>
