<svg width="41" height="45" viewBox="0 0 41 45" fill="none" xmlns="http://www.w3.org/2000/svg">
<path d="M20.4536 12.2725C21.5833 12.2725 22.499 11.3567 22.499 10.2271C22.499 9.0974 21.5833 8.18164 20.4536 8.18164C19.324 8.18164 18.4082 9.0974 18.4082 10.2271C18.4082 11.3567 19.324 12.2725 20.4536 12.2725Z" fill="#8E83DD"/>
<path d="M8.18066 32.7266H32.7256V36.8174H8.18066V32.7266Z" fill="#8E83DD"/>
<path d="M16.3623 22.1523L22.0731 27.8672L30.1156 19.8185L32.7256 22.5V14.3184H24.5439L27.2234 16.9263L22.071 22.0786L16.3623 16.3638L8.18066 24.5454L11.0729 27.4376L16.3623 22.1523Z" fill="#8E83DD"/>
<path d="M34.771 4.0918H28.0252C27.8244 3.78937 27.6058 3.49909 27.3707 3.2225L27.3502 3.19795C25.8474 1.4476 23.7331 0.337005 21.439 0.0930206C20.7876 -0.0310069 20.1186 -0.0310069 19.4672 0.0930206C17.1732 0.337005 15.0588 1.4476 13.556 3.19795L13.5355 3.2225C13.3005 3.49843 13.0819 3.78802 12.881 4.08975V4.0918H6.13525C4.50832 4.09342 2.94849 4.74044 1.79808 5.89085C0.647664 7.04127 0.000647933 8.6011 -0.000976562 10.228V38.8638C0.000647933 40.4907 0.647664 42.0505 1.79808 43.2009C2.94849 44.3514 4.50832 44.9984 6.13525 45H34.771C36.3979 44.9984 37.9578 44.3514 39.1082 43.2009C40.2586 42.0505 40.9056 40.4907 40.9072 38.8638V10.228C40.9056 8.6011 40.2586 7.04127 39.1082 5.89085C37.9578 4.74044 36.3979 4.09342 34.771 4.0918ZM36.8164 38.8638C36.8164 39.4062 36.6009 39.9265 36.2173 40.3101C35.8337 40.6937 35.3135 40.9092 34.771 40.9092H6.13525C5.59294 40.9086 5.073 40.693 4.68953 40.3095C4.30606 39.926 4.09039 39.4061 4.08984 38.8638V10.228C4.09039 9.68572 4.30606 9.16577 4.68953 8.7823C5.073 8.39883 5.59294 8.18316 6.13525 8.18262H15.4419C15.6766 7.02667 16.3037 5.98741 17.217 5.24093C18.1303 4.49446 19.2736 4.08667 20.4531 4.08667C21.6327 4.08667 22.7759 4.49446 23.6892 5.24093C24.6025 5.98741 25.2297 7.02667 25.4644 8.18262H34.771C35.3133 8.18316 35.8332 8.39883 36.2167 8.7823C36.6002 9.16577 36.8159 9.68572 36.8164 10.228V38.8638Z" fill="#8E83DD"/>
</svg>
