<svg width="45" height="56" viewBox="0 0 45 56" fill="none" xmlns="http://www.w3.org/2000/svg">
<path fill-rule="evenodd" clipRule="evenodd" d="M41.25 3.64395H3.75C3.41848 3.64395 3.10054 3.80443 2.86612 4.09008C2.6317 4.37572 2.5 4.76314 2.5 5.1671V50.8616C2.5 51.2655 2.6317 51.653 2.86612 51.9386C3.10054 52.2243 3.41848 52.3847 3.75 52.3847H41.25C41.5815 52.3847 41.8995 52.2243 42.1339 51.9386C42.3683 51.653 42.5 51.2655 42.5 50.8616V5.1671C42.5 4.76314 42.3683 4.37572 42.1339 4.09008C41.8995 3.80443 41.5815 3.64395 41.25 3.64395ZM3.75 0.597656C2.75544 0.597656 1.80161 1.07908 1.09835 1.93602C0.395088 2.79295 0 3.95521 0 5.1671V50.8616C0 52.0735 0.395088 53.2357 1.09835 54.0927C1.80161 54.9496 2.75544 55.431 3.75 55.431H41.25C42.2446 55.431 43.1984 54.9496 43.9016 54.0927C44.6049 53.2357 45 52.0735 45 50.8616V5.1671C45 3.95521 44.6049 2.79295 43.9016 1.93602C43.1984 1.07908 42.2446 0.597656 41.25 0.597656H3.75Z" fill="#79EBB0"/>
<path d="M16.25 21.923C16.25 23.1349 15.8549 24.2971 15.1517 25.1541C14.4484 26.011 13.4946 26.4924 12.5 26.4924C11.5054 26.4924 10.5516 26.011 9.84835 25.1541C9.14509 24.2971 8.75 23.1349 8.75 21.923C8.75 20.7111 9.14509 19.5488 9.84835 18.6919C10.5516 17.8349 11.5054 17.3535 12.5 17.3535C13.4946 17.3535 14.4484 17.8349 15.1517 18.6919C15.8549 19.5488 16.25 20.7111 16.25 21.923Z" fill="#79EBB0"/>
<path fill-rule="evenodd" clipRule="evenodd" d="M7.82098 32.9487C7.55848 33.2701 7.50098 33.5107 7.50098 33.6904V38.6757H5.00098V33.6904C5.00098 32.4902 5.46348 31.52 6.04723 30.8026C6.62098 30.1004 7.35973 29.5734 8.09348 29.1819C9.55348 28.4051 11.286 28.0137 12.501 28.0137C13.7147 28.0137 15.4485 28.4051 16.9085 29.1819C17.6422 29.5734 18.381 30.1004 18.9547 30.8026C19.5397 31.52 20.001 32.4902 20.001 33.6904V38.6757H17.501V33.6904C17.501 33.5107 17.4422 33.2701 17.181 32.9502C16.9085 32.6151 16.476 32.277 15.9072 31.9739C14.7647 31.3646 13.3722 31.06 12.501 31.06C11.6297 31.06 10.2385 31.3646 9.09473 31.9739C8.52598 32.2754 8.09473 32.6136 7.82098 32.9487Z" fill="#79EBB0"/>
<path fill-rule="evenodd" clipRule="evenodd" d="M27.82 32.9487C27.5575 33.2701 27.5 33.5107 27.5 33.6904V38.6757H25V33.6904C25 32.4902 25.4625 31.52 26.0462 30.8026C26.62 30.1004 27.3588 29.5734 28.0925 29.1819C29.5525 28.4051 31.2863 28.0137 32.5 28.0137C33.7138 28.0137 35.4475 28.4051 36.9075 29.1819C37.6413 29.5734 38.38 30.1004 38.9537 30.8026C39.5387 31.52 40 32.4902 40 33.6904V38.6757H37.5V33.6904C37.5 33.5107 37.4413 33.2701 37.18 32.9502C36.9075 32.6151 36.475 32.277 35.9062 31.9739C34.7637 31.3646 33.3713 31.06 32.5 31.06C31.6288 31.06 30.2375 31.3646 29.0938 31.9739C28.525 32.2754 28.0938 32.6136 27.82 32.9487Z" fill="#79EBB0"/>
<path d="M36.249 21.923C36.249 23.1349 35.8539 24.2971 35.1507 25.1541C34.4474 26.011 33.4936 26.4924 32.499 26.4924C31.5045 26.4924 30.5506 26.011 29.8474 25.1541C29.1441 24.2971 28.749 23.1349 28.749 21.923C28.749 20.7111 29.1441 19.5488 29.8474 18.6919C30.5506 17.8349 31.5045 17.3535 32.499 17.3535C33.4936 17.3535 34.4474 17.8349 35.1507 18.6919C35.8539 19.5488 36.249 20.7111 36.249 21.923Z" fill="#79EBB0"/>
<path d="M26.249 18.8761C26.249 20.088 25.8539 21.2502 25.1507 22.1072C24.4474 22.9641 23.4936 23.4455 22.499 23.4455C21.5045 23.4455 20.5506 22.9641 19.8474 22.1072C19.1441 21.2502 18.749 20.088 18.749 18.8761C18.749 17.6642 19.1441 16.5019 19.8474 15.645C20.5506 14.7881 21.5045 14.3066 22.499 14.3066C23.4936 14.3066 24.4474 14.7881 25.1507 15.645C25.8539 16.5019 26.249 17.6642 26.249 18.8761Z" fill="#79EBB0"/>
<path fill-rule="evenodd" clipRule="evenodd" d="M20.8711 29.5306C20.5174 29.5732 20.3961 29.6707 20.3074 29.791L18.4424 27.7622C19.0986 26.8666 19.9174 26.5833 20.6274 26.498C21.0574 26.4477 21.5899 26.466 22.0274 26.4797C22.2049 26.4858 22.3674 26.4919 22.4999 26.4919C22.6324 26.4919 22.7949 26.4858 22.9736 26.4797C23.4099 26.4645 23.9424 26.4492 24.3711 26.4995C25.0836 26.5833 25.9011 26.8666 26.5574 27.7622L24.6924 29.791C24.6049 29.6707 24.4824 29.5732 24.1286 29.5321C23.8983 29.5097 23.6671 29.5036 23.4361 29.5138L23.1836 29.5214C22.9711 29.529 22.7299 29.5382 22.4999 29.5382C22.2699 29.5382 22.0286 29.529 21.8161 29.5229L21.5636 29.5138C21.3327 29.5031 21.1015 29.5087 20.8711 29.5306Z" fill="#79EBB0"/>
</svg>
