<svg width="26" height="24" viewBox="0 0 26 24" fill="none" xmlns="http://www.w3.org/2000/svg">
<path d="M16.25 16.3125V13.875H26V21.1875C26 22.5078 24.832 23.625 23.5625 23.625H2.4375C1.11719 23.625 0 22.5078 0 21.1875V13.875H9.75V16.3125C9.75 16.7695 10.1055 17.125 10.5625 17.125H15.4375C15.8438 17.125 16.25 16.7695 16.25 16.3125ZM23.5625 5.75C24.832 5.75 26 6.91797 26 8.1875V12.25H0V8.1875C0 6.91797 1.11719 5.75 2.4375 5.75H6.5V3.3125C6.5 2.04297 7.61719 0.875 8.9375 0.875H17.0625C18.332 0.875 19.5 2.04297 19.5 3.3125V5.75H23.5625ZM16.25 5.75V4.125H9.75V5.75H16.25Z" fill="#5E2DFA"/>
</svg>
