<svg width="125" height="20" viewBox="0 0 125 20" fill="none" xmlns="http://www.w3.org/2000/svg">
<path d="M0 0H125L114.5 10L125 20H0V0Z" fill="#FDBA17"/>
<path d="M30.877 5.355V13H29.623V7.764L27.291 13H26.422L24.079 7.764V13H22.825V5.355H24.178L26.862 11.35L29.535 5.355H30.877ZM36.0122 13.077C35.3009 13.077 34.6445 12.912 34.0432 12.582C33.4492 12.2447 32.9762 11.779 32.6242 11.185C32.2795 10.5837 32.1072 9.909 32.1072 9.161C32.1072 8.413 32.2795 7.742 32.6242 7.148C32.9762 6.554 33.4492 6.092 34.0432 5.762C34.6445 5.42467 35.3009 5.256 36.0122 5.256C36.7309 5.256 37.3872 5.42467 37.9812 5.762C38.5825 6.092 39.0555 6.554 39.4002 7.148C39.7449 7.742 39.9172 8.413 39.9172 9.161C39.9172 9.909 39.7449 10.5837 39.4002 11.185C39.0555 11.779 38.5825 12.2447 37.9812 12.582C37.3872 12.912 36.7309 13.077 36.0122 13.077ZM36.0122 11.988C36.5182 11.988 36.9692 11.8743 37.3652 11.647C37.7612 11.4123 38.0692 11.0823 38.2892 10.657C38.5165 10.2243 38.6302 9.72567 38.6302 9.161C38.6302 8.59633 38.5165 8.10133 38.2892 7.676C38.0692 7.25067 37.7612 6.92433 37.3652 6.697C36.9692 6.46967 36.5182 6.356 36.0122 6.356C35.5062 6.356 35.0552 6.46967 34.6592 6.697C34.2632 6.92433 33.9515 7.25067 33.7242 7.676C33.5042 8.10133 33.3942 8.59633 33.3942 9.161C33.3942 9.72567 33.5042 10.2243 33.7242 10.657C33.9515 11.0823 34.2632 11.4123 34.6592 11.647C35.0552 11.8743 35.5062 11.988 36.0122 11.988ZM43.6702 13.077C43.1568 13.077 42.6948 12.989 42.2842 12.813C41.8735 12.6297 41.5508 12.373 41.3162 12.043C41.0815 11.713 40.9642 11.328 40.9642 10.888H42.3062C42.3355 11.218 42.4638 11.4893 42.6912 11.702C42.9258 11.9147 43.2522 12.021 43.6702 12.021C44.1028 12.021 44.4402 11.9183 44.6822 11.713C44.9242 11.5003 45.0452 11.229 45.0452 10.899C45.0452 10.6423 44.9682 10.4333 44.8142 10.272C44.6675 10.1107 44.4805 9.986 44.2532 9.898C44.0332 9.81 43.7252 9.71467 43.3292 9.612C42.8305 9.48 42.4235 9.348 42.1082 9.216C41.8002 9.07667 41.5362 8.864 41.3162 8.578C41.0962 8.292 40.9862 7.91067 40.9862 7.434C40.9862 6.994 41.0962 6.609 41.3162 6.279C41.5362 5.949 41.8442 5.696 42.2402 5.52C42.6362 5.344 43.0945 5.256 43.6152 5.256C44.3558 5.256 44.9608 5.443 45.4302 5.817C45.9068 6.18367 46.1708 6.68967 46.2222 7.335H44.8362C44.8142 7.05633 44.6822 6.818 44.4402 6.62C44.1982 6.422 43.8792 6.323 43.4832 6.323C43.1238 6.323 42.8305 6.41467 42.6032 6.598C42.3758 6.78133 42.2622 7.04533 42.2622 7.39C42.2622 7.62467 42.3318 7.819 42.4712 7.973C42.6178 8.11967 42.8012 8.237 43.0212 8.325C43.2412 8.413 43.5418 8.50833 43.9232 8.611C44.4292 8.75033 44.8398 8.88967 45.1552 9.029C45.4778 9.16833 45.7492 9.38467 45.9692 9.678C46.1965 9.964 46.3102 10.349 46.3102 10.833C46.3102 11.2217 46.2038 11.5883 45.9912 11.933C45.7858 12.2777 45.4815 12.5563 45.0782 12.769C44.6822 12.9743 44.2128 13.077 43.6702 13.077ZM52.7288 5.355V6.378H50.6938V13H49.4398V6.378H47.3938V5.355H52.7288ZM62.2023 7.632C62.2023 8.02067 62.1106 8.38733 61.9273 8.732C61.7439 9.07667 61.4506 9.359 61.0473 9.579C60.6439 9.79167 60.1269 9.898 59.4963 9.898H58.1103V13H56.8563V5.355H59.4963C60.0829 5.355 60.5779 5.45767 60.9813 5.663C61.3919 5.861 61.6963 6.13233 61.8943 6.477C62.0996 6.82167 62.2023 7.20667 62.2023 7.632ZM59.4963 8.875C59.9729 8.875 60.3286 8.76867 60.5633 8.556C60.7979 8.336 60.9153 8.028 60.9153 7.632C60.9153 6.796 60.4423 6.378 59.4963 6.378H58.1103V8.875H59.4963ZM66.8852 13.077C66.1739 13.077 65.5176 12.912 64.9162 12.582C64.3222 12.2447 63.8492 11.779 63.4972 11.185C63.1526 10.5837 62.9802 9.909 62.9802 9.161C62.9802 8.413 63.1526 7.742 63.4972 7.148C63.8492 6.554 64.3222 6.092 64.9162 5.762C65.5176 5.42467 66.1739 5.256 66.8852 5.256C67.6039 5.256 68.2602 5.42467 68.8542 5.762C69.4556 6.092 69.9286 6.554 70.2732 7.148C70.6179 7.742 70.7902 8.413 70.7902 9.161C70.7902 9.909 70.6179 10.5837 70.2732 11.185C69.9286 11.779 69.4556 12.2447 68.8542 12.582C68.2602 12.912 67.6039 13.077 66.8852 13.077ZM66.8852 11.988C67.3912 11.988 67.8422 11.8743 68.2382 11.647C68.6342 11.4123 68.9422 11.0823 69.1622 10.657C69.3896 10.2243 69.5032 9.72567 69.5032 9.161C69.5032 8.59633 69.3896 8.10133 69.1622 7.676C68.9422 7.25067 68.6342 6.92433 68.2382 6.697C67.8422 6.46967 67.3912 6.356 66.8852 6.356C66.3792 6.356 65.9282 6.46967 65.5322 6.697C65.1362 6.92433 64.8246 7.25067 64.5972 7.676C64.3772 8.10133 64.2672 8.59633 64.2672 9.161C64.2672 9.72567 64.3772 10.2243 64.5972 10.657C64.8246 11.0823 65.1362 11.4123 65.5322 11.647C65.9282 11.8743 66.3792 11.988 66.8852 11.988ZM77.3702 7.632C77.3702 8.02067 77.2786 8.38733 77.0952 8.732C76.9119 9.07667 76.6186 9.359 76.2152 9.579C75.8119 9.79167 75.2949 9.898 74.6642 9.898H73.2782V13H72.0242V5.355H74.6642C75.2509 5.355 75.7459 5.45767 76.1492 5.663C76.5599 5.861 76.8642 6.13233 77.0622 6.477C77.2676 6.82167 77.3702 7.20667 77.3702 7.632ZM74.6642 8.875C75.1409 8.875 75.4966 8.76867 75.7312 8.556C75.9659 8.336 76.0832 8.028 76.0832 7.632C76.0832 6.796 75.6102 6.378 74.6642 6.378H73.2782V8.875H74.6642ZM79.8092 5.355V10.228C79.8092 10.8073 79.9595 11.2437 80.2602 11.537C80.5682 11.8303 80.9935 11.977 81.5362 11.977C82.0862 11.977 82.5115 11.8303 82.8122 11.537C83.1202 11.2437 83.2742 10.8073 83.2742 10.228V5.355H84.5282V10.206C84.5282 10.8293 84.3925 11.3573 84.1212 11.79C83.8499 12.2227 83.4869 12.5453 83.0322 12.758C82.5775 12.9707 82.0752 13.077 81.5252 13.077C80.9752 13.077 80.4729 12.9707 80.0182 12.758C79.5709 12.5453 79.2152 12.2227 78.9512 11.79C78.6872 11.3573 78.5552 10.8293 78.5552 10.206V5.355H79.8092ZM87.4149 11.988H89.9999V13H86.1609V5.355H87.4149V11.988ZM95.6576 11.438H92.4566L91.9066 13H90.5976L93.3366 5.344H94.7886L97.5276 13H96.2076L95.6576 11.438ZM95.3056 10.415L94.0626 6.862L92.8086 10.415H95.3056ZM102.69 13L100.93 9.942H99.9726V13H98.7186V5.355H101.359C101.945 5.355 102.44 5.45767 102.844 5.663C103.254 5.86833 103.559 6.14333 103.757 6.488C103.962 6.83267 104.065 7.21767 104.065 7.643C104.065 8.14167 103.918 8.59633 103.625 9.007C103.339 9.41033 102.895 9.68533 102.294 9.832L104.186 13H102.69ZM99.9726 8.941H101.359C101.828 8.941 102.18 8.82367 102.415 8.589C102.657 8.35433 102.778 8.039 102.778 7.643C102.778 7.247 102.66 6.939 102.426 6.719C102.191 6.49167 101.835 6.378 101.359 6.378H99.9726V8.941Z" fill="black"/>
</svg>
