<svg width="16" height="15" viewBox="0 0 16 15" fill="none" xmlns="http://www.w3.org/2000/svg">
<path d="M11.0762 3.23633L13.5371 5.69727C13.6465 5.80664 13.6465 5.9707 13.5371 6.08008L7.57617 12.041L5.0332 12.3145C4.70508 12.3691 4.4043 12.0684 4.45898 11.7402L4.73242 9.19727L10.6934 3.23633C10.8027 3.12695 10.9668 3.12695 11.0762 3.23633ZM15.5059 2.60742C15.916 3.01758 15.916 3.70117 15.5059 4.11133L14.5488 5.06836C14.4395 5.17773 14.2754 5.17773 14.166 5.06836L11.7051 2.60742C11.5957 2.49805 11.5957 2.33398 11.7051 2.22461L12.6621 1.26758C13.0723 0.857422 13.7559 0.857422 14.166 1.26758L15.5059 2.60742ZM10.584 10.4277C10.584 10.3184 10.6113 10.2363 10.666 10.1816L11.7598 9.08789C11.9785 8.89648 12.334 9.0332 12.334 9.33398V13.627C12.334 14.3652 11.7324 14.9395 11.0215 14.9395H1.39648C0.658203 14.9395 0.0839844 14.3652 0.0839844 13.627V4.00195C0.0839844 3.29102 0.658203 2.68945 1.39648 2.68945H9.18945C9.49023 2.68945 9.62695 3.04492 9.43555 3.26367L8.3418 4.35742C8.28711 4.41211 8.20508 4.43945 8.0957 4.43945H1.83398V13.1895H10.584V10.4277Z" fill="white"/>
</svg>
