<svg width="13" height="13" viewBox="0 0 13 13" fill="none" xmlns="http://www.w3.org/2000/svg">
<path d="M11.2227 0.804688C11.2227 0.804688 11.2227 0.804688 11.2227 0.78125C11.2227 0.640625 11.3633 0.523438 11.5039 0.5H12.6289C12.7695 0.5 12.9102 0.640625 12.9102 0.78125V5.49219C12.9102 5.63281 12.7695 5.77344 12.6289 5.77344H7.91797C7.77734 5.77344 7.63672 5.63281 7.63672 5.49219V4.36719C7.63672 4.22656 7.77734 4.08594 7.91797 4.08594H7.94141L10.3086 4.20312C9.58203 3.10156 8.31641 2.39844 6.88672 2.39844C4.94141 2.39844 3.32422 3.73438 2.87891 5.53906C2.85547 5.67969 2.73828 5.75 2.62109 5.75H1.47266C1.30859 5.75 1.19141 5.63281 1.19141 5.49219C1.19141 5.46875 1.19141 5.44531 1.19141 5.42188C1.68359 2.72656 4.05078 0.6875 6.88672 0.6875C6.88672 0.6875 6.88672 0.6875 6.91016 0.6875C8.66797 0.6875 10.2617 1.48438 11.3164 2.75L11.2227 0.804688ZM6.88672 10.625C8.83203 10.625 10.4727 9.28906 10.8945 7.48438C10.9414 7.34375 11.0352 7.27344 11.1758 7.25H12.3242C12.4883 7.25 12.6055 7.39062 12.6055 7.53125C12.6055 7.55469 12.6055 7.57812 12.6055 7.60156C12.0898 10.2969 9.72266 12.3125 6.88672 12.3125V12.3359C5.12891 12.3359 3.53516 11.5391 2.48047 10.2734L2.57422 12.2188C2.57422 12.3828 2.43359 12.5 2.29297 12.5H1.19141C1.02734 12.5 0.910156 12.3828 0.910156 12.2188V7.53125C0.910156 7.39062 1.02734 7.25 1.19141 7.25H5.87891C6.01953 7.25 6.16016 7.39062 6.16016 7.53125V8.65625C6.16016 8.79688 6.01953 8.9375 5.87891 8.9375H5.85547L3.46484 8.82031C4.21484 9.92188 5.45703 10.625 6.88672 10.625Z" fill="white"/>
</svg>
