<svg width="15" height="15" viewBox="0 0 15 15" fill="none" xmlns="http://www.w3.org/2000/svg">
<path d="M13.9082 12.8633C14.1543 13.1367 14.1543 13.5469 13.8809 13.793L13.1152 14.5586C12.8691 14.832 12.459 14.832 12.1855 14.5586L9.47852 11.8516C9.3418 11.7148 9.28711 11.5508 9.28711 11.3867V10.9219C8.30273 11.6875 7.09961 12.125 5.78711 12.125C2.64258 12.125 0.0996094 9.58203 0.0996094 6.4375C0.0996094 3.32031 2.64258 0.75 5.78711 0.75C8.9043 0.75 11.4746 3.32031 11.4746 6.4375C11.4746 7.77734 11.0098 8.98047 10.2715 9.9375H10.709C10.873 9.9375 11.0371 10.0195 11.1738 10.1289L13.9082 12.8633ZM5.78711 9.9375C7.70117 9.9375 9.28711 8.37891 9.28711 6.4375C9.28711 4.52344 7.70117 2.9375 5.78711 2.9375C3.8457 2.9375 2.28711 4.52344 2.28711 6.4375C2.28711 8.37891 3.8457 9.9375 5.78711 9.9375Z" fill="#495057"/>
</svg>
