<svg width="33" height="37" viewBox="0 0 33 37" fill="none" xmlns="http://www.w3.org/2000/svg">
<path d="M16.4805 18.5C11.4883 18.5 7.48047 14.4922 7.48047 9.5C7.48047 4.57812 11.4883 0.5 16.4805 0.5C21.4023 0.5 25.4805 4.57812 25.4805 9.5C25.4805 14.4922 21.4023 18.5 16.4805 18.5ZM22.7383 20.75C27.9414 20.75 32.2305 25.0391 32.2305 30.2422V33.125C32.2305 35.0234 30.6836 36.5 28.8555 36.5H4.10547C2.20703 36.5 0.730469 35.0234 0.730469 33.125V30.2422C0.730469 25.0391 4.94922 20.75 10.1523 20.75H11.3477C12.8945 21.5234 14.6523 21.875 16.4805 21.875C18.3086 21.875 19.9961 21.5234 21.543 20.75H22.7383Z" fill="#999999"/>
</svg>
